# xmcd
#
# Track frame offsets:
#	150
#	27945
#	65378
#	84482
#	100754
#	125915
#	159355
#	172400
#	275510
#	330135
#	347966
#
# Disc length: 4985 seconds
#
# Revision: 1
# Processed by: cddbd v1.5PL3 Copyright (c) Steve Scherf et al.
# Submitted via: audiograbber 1.82.01
#
DISCID=9913770b
DTITLE=Fleetwood Mac - 1970-01-31 - The Warehouse, New Orleans - 90Min Cdr
DYEAR=1900
DGENRE=
TTITLE0=Fleetwood Mac - Sandy Mary
TTITLE1=Fleetwood Mac - Better Off Dead
TTITLE2=Fleetwood Mac - Only You
TTITLE3=Fleetwood Mac - World in Harmony
TTITLE4=Fleetwood Mac - Stranger Blues
TTITLE5=Fleetwood Mac - I Can't Hold Out
TTITLE6=Fleetwood Mac - Oh Well
TTITLE7=Fleetwood Mac - Rattlesnake Shake - Underway
TTITLE8=Fleetwood Mac - Coming Your Way
TTITLE9=Fleetwood Mac - Tiger
TTITLE10=Fleetwood Mac - Twist and Shout
EXTD=
EXTT0=
EXTT1=
EXTT2=
EXTT3=
EXTT4=
EXTT5=
EXTT6=
EXTT7=
EXTT8=
EXTT9=
EXTT10=
PLAYORDER=
